name analog
datacolumns 19
datarows 23
range 0.0 0.011
endheader
time	ground_force_vx	ground_force_vy	ground_force_vz	ground_force_px	ground_force_py	ground_force_pz	l_ground_force_vx	l_ground_force_vy	l_ground_force_vz	l_ground_force_px	l_ground_force_py	l_ground_force_pz	ground_torque_x	ground_torque_y	ground_torque_z	l_ground_torque_x	l_ground_torque_y	l_ground_torque_z
0.0	-0.0	-0.0	-0.0	3.211946725845337	90.55641174316406	-529.770751953125	-1.062233567237854	-89.20719909667969	-464.3355102539063	-0.0	-0.0	-0.0	-0.0	-0.0	-0.0	79728.65625	-22802.482421875	96.0097885131836
0.0005	-0.0	-0.0	-0.0	2.8556509017944336	90.2901382446289	-531.1790161132812	-0.7929409742355347	-89.38480377197266	-464.7122497558594	-0.0	-0.0	-0.0	-0.0	-0.0	-0.0	80069.734375	-23018.755859375	184.38059997558597
0.001	-0.0	-0.0	-0.0	3.479005813598633	90.28909301757812	-530.8237915039062	-0.7107044458389282	-89.73078155517578	-464.7208251953125	-0.0	-0.0	-0.0	-0.0	-0.0	-0.0	80025.9296875	-23188.146484375	126.04452514648438
0.0015	-0.0	-0.0	-0.0	3.2123332023620605	90.199462890625	-527.64990234375	-1.0577328205108645	-89.8241195678711	-465.40765380859375	-0.0	-0.0	-0.0	-0.0	-0.0	-0.0	80093.8984375	-23091.546875	243.4087677001953
0.002	-0.0	-0.0	-0.0	2.767151355743408	89.75529479980469	-528.3546142578125	-0.5313666462898254	-89.56356048583984	-465.7576599121094	-0.0	-0.0	-0.0	-0.0	-0.0	-0.0	80149.859375	-23121.212890625	155.157470703125
0.0025	-0.0	-0.0	-0.0	2.8574154376983643	90.20226287841795	-529.7562866210938	-0.2703355252742767	-90.1739273071289	-465.7616271972656	-0.0	-0.0	-0.0	-0.0	-0.0	-0.0	80573.9140625	-22992.673828125	243.0366058349609
0.003	-0.0	-0.0	-0.0	2.946530342102051	89.93429565429688	-526.9444580078125	-0.5282994508743286	-90.44062042236328	-466.8157348632813	-0.0	-0.0	-0.0	-0.0	-0.0	-0.0	80395.0859375	-23122.921875	302.6916198730469
0.0035	-0.0	-0.0	-0.0	3.3002848625183105	90.01969909667969	-526.9404907226562	-0.6202555298805237	-90.52613830566406	-466.131591796875	-0.0	-0.0	-0.0	-0.0	-0.0	-0.0	80530.234375	-23070.806640625	185.17654418945312
0.004	-0.0	-0.0	-0.0	2.9439468383789062	89.30867004394531	-526.59130859375	-0.8830701112747192	-90.17643737792967	-467.85784912109375	-0.0	-0.0	-0.0	-0.0	-0.0	-0.0	80315.6015625	-23429.3671875	184.11541748046875
0.0045000000000000005	-0.0	-0.0	-0.0	2.412334442138672	90.11266326904295	-526.2429809570312	-0.2667484581470489	-90.17459869384766	-467.5164489746094	-0.0	-0.0	-0.0	-0.0	-0.0	-0.0	80644.359375	-23165.69921875	154.8901824951172
0.005	-0.0	-0.0	-0.0	2.588468551635742	89.92848205566406	-524.1109008789062	-0.5328077673912048	-89.64813995361328	-467.5161743164063	-0.0	-0.0	-0.0	-0.0	-0.0	-0.0	80681.65625	-23295.9453125	96.23296356201172
0.0055	-0.0	-0.0	-0.0	2.230992078781128	90.0231704711914	-524.8139038085938	-0.5332564115524292	-90.26575469970705	-467.1668090820313	-0.0	-0.0	-0.0	-0.0	-0.0	-0.0	80846.453125	-23237.56640625	125.01344299316406
0.006	-0.0	-0.0	-0.0	2.6747095584869385	89.48532104492188	-524.468994140625	-0.6222440600395203	-90.2630844116211	-468.9073181152344	-0.0	-0.0	-0.0	-0.0	-0.0	-0.0	80649.2890625	-23126.580078125	125.23363494873048
0.006500000000000001	-0.0	-0.0	-0.0	2.320333480834961	89.75173950195312	-524.1292114257812	-0.7983970642089844	-90.1768035888672	-468.91064453125	-0.0	-0.0	-0.0	-0.0	-0.0	-0.0	80842.9609375	-23426.14453125	154.26686096191406
0.007	-0.0	-0.0	-0.0	2.9375929832458496	90.10358428955078	-521.9927978515625	-0.8867892622947693	-90.08938598632812	-469.6051940917969	-0.0	-0.0	-0.0	-0.0	-0.0	-0.0	80641.125	-23140.685546875	153.61854553222656
0.0075	-0.0	-0.0	-0.0	1.877345323562622	89.40367889404297	-523.0477905273438	-0.9765552878379822	-90.35162353515624	-468.2142639160156	-0.0	-0.0	-0.0	-0.0	-0.0	-0.0	80523.8828125	-23320.46875	-23.15117835998535
0.008	-0.0	-0.0	-0.0	2.759355068206787	89.39574432373047	-521.6426391601562	-0.9768111109733582	-90.5283432006836	-469.9549560546875	-0.0	-0.0	-0.0	-0.0	-0.0	-0.0	80600.0703125	-23029.01953125	-53.55207061767578
0.0085	-0.0	-0.0	-0.0	1.96588933467865	88.86626434326172	-519.2046508789062	-1.41937255859375	-90.8825912475586	-471.0022277832031	-0.0	-0.0	-0.0	-0.0	-0.0	-0.0	80949.8359375	-22878.89453125	-24.235340118408203
0.009000000000000001	-0.0	-0.0	-0.0	2.234900951385498	89.47649383544922	-521.6651000976562	-1.4191679954528809	-90.35308837890624	-470.6547546386719	-0.0	-0.0	-0.0	-0.0	-0.0	-0.0	80590.53125	-22995.12890625	-53.6002311706543
0.0095	-0.0	-0.0	-0.0	2.4038543701171875	88.94973754882812	-519.90478515625	-1.6854429244995115	-90.52978515625	-469.6090393066406	-0.0	-0.0	-0.0	-0.0	-0.0	-0.0	80731.5	-23184.583984375	-142.82179260253906
0.01	-0.0	-0.0	-0.0	2.142333030700684	88.86812591552734	-519.8707275390625	-1.6853476762771606	-90.44161224365234	-471.005126953125	-0.0	-0.0	-0.0	-0.0	-0.0	-0.0	80727.6484375	-23009.517578125	-113.18042755126952
0.0105	-0.0	-0.0	-0.0	2.0612130165100098	89.21417999267578	-519.4906005859375	-1.5969040393829346	-90.97090911865234	-470.6563720703125	-0.0	-0.0	-0.0	-0.0	-0.0	-0.0	80954.4453125	-23179.04296875	-142.8984832763672
0.011	-0.0	-0.0	-0.0	1.3478615283966064	88.86577606201172	-519.1470947265625	-1.596322774887085	-90.97150421142578	-471.7032470703125	-0.0	-0.0	-0.0	-0.0	-0.0	-0.0	81087.140625	-22830.556640625	-113.2867202758789
